HIERARCHY
ROOT Hips
{
	OFFSET	0.00	0.00	0.00
	CHANNELS 6 Xposition Yposition Zposition Zrotation Xrotation Yrotation
	JOINT LeftUpLeg
	{
		OFFSET	 0.126116	-0.014019	-0.065224
		CHANNELS 3 Zrotation Xrotation Yrotation
		JOINT LeftLeg
		{
			OFFSET	 0.000000	 0.000000	 0.569914
			CHANNELS 3 Zrotation Xrotation Yrotation
			JOINT LeftFoot
			{
				OFFSET	 0.000000	 0.000000	 0.544423
				CHANNELS 3 Zrotation Xrotation Yrotation
				JOINT LeftToeBase
				{
					OFFSET	 0.000000	 0.000000	 0.207117
					CHANNELS 3 Zrotation Xrotation Yrotation
					End Site
					{
						OFFSET	 0.000000	 0.000000	 0.207117
					}
				}
			}
		}
	}
	JOINT RightUpLeg
	{
		OFFSET	-0.124023	-0.008373	-0.065224
		CHANNELS 3 Zrotation Xrotation Yrotation
		JOINT RightLeg
		{
			OFFSET	 0.000000	 0.000000	 0.570047
			CHANNELS 3 Zrotation Xrotation Yrotation
			JOINT RightFoot
			{
				OFFSET	 0.000000	 0.000000	 0.544354
				CHANNELS 3 Zrotation Xrotation Yrotation
				JOINT RightToeBase
				{
					OFFSET	 0.000000	 0.000000	 0.207540
					CHANNELS 3 Zrotation Xrotation Yrotation
					End Site
					{
						OFFSET	 0.000000	 0.000000	 0.207540
					}
				}
			}
		}
	}
	JOINT Spine
	{
		OFFSET	 0.000184	-0.007763	 0.117403
		CHANNELS 3 Zrotation Xrotation Yrotation
		JOINT Spine1
		{
			OFFSET	 0.000000	 0.000000	 0.137269
			CHANNELS 3 Zrotation Xrotation Yrotation
			JOINT Spine2
			{
				OFFSET	 0.000000	 0.000000	 0.156879
				CHANNELS 3 Zrotation Xrotation Yrotation
				JOINT LeftShoulder
				{
					OFFSET	 0.080501	-0.002496	 0.160144
					CHANNELS 3 Zrotation Xrotation Yrotation
					JOINT LeftArm
					{
						OFFSET	 0.000000	 0.000000	 0.164363
						CHANNELS 3 Zrotation Xrotation Yrotation
						JOINT LeftForeArm
						{
							OFFSET	 0.000000	 0.000000	 0.364576
							CHANNELS 3 Zrotation Xrotation Yrotation
							JOINT LeftHand
							{
								OFFSET	 0.000000	 0.000000	 0.360812
								CHANNELS 3 Zrotation Xrotation Yrotation
								JOINT LeftHandIndex1
								{
									OFFSET	 0.000000	 0.000000	 0.086006
									CHANNELS 3 Zrotation Xrotation Yrotation
									JOINT LeftHandIndex2
									{
										OFFSET	 0.000000	 0.000000	 0.047236
										CHANNELS 3 Zrotation Xrotation Yrotation
										JOINT LeftHandIndex3
										{
											OFFSET	-0.004284	-0.000551	 0.038166
											CHANNELS 3 Zrotation Xrotation Yrotation
											End Site
											{
												OFFSET	-0.004284	-0.000551	 0.038166
											}
										}
									}
								}
							}
						}
					}
				}
				JOINT Neck
				{
					OFFSET	 0.000000	 0.000000	 0.176489
					CHANNELS 3 Zrotation Xrotation Yrotation
					JOINT Head
					{
						OFFSET	 0.000000	-0.001747	 0.077940
						CHANNELS 3 Zrotation Xrotation Yrotation
						End Site
						{
							OFFSET	 0.000000	-0.001747	 0.077940
						}
					}
				}
				JOINT RightShoulder
				{
					OFFSET	-0.080363	 0.000306	 0.159706
					CHANNELS 3 Zrotation Xrotation Yrotation
					JOINT RightArm
					{
						OFFSET	 0.000000	 0.000000	 0.164196
						CHANNELS 3 Zrotation Xrotation Yrotation
						JOINT RightForeArm
						{
							OFFSET	 0.000000	 0.000000	 0.365611
							CHANNELS 3 Zrotation Xrotation Yrotation
							JOINT RightHand
							{
								OFFSET	 0.000000	 0.000000	 0.360648
								CHANNELS 3 Zrotation Xrotation Yrotation
								JOINT RightHandIndex1
								{
									OFFSET	 0.000000	 0.000000	 0.069977
									CHANNELS 3 Zrotation Xrotation Yrotation
									JOINT RightHandIndex2
									{
										OFFSET	 0.000000	 0.000000	 0.052305
										CHANNELS 3 Zrotation Xrotation Yrotation
										JOINT RightHandIndex3
										{
											OFFSET	 0.009002	-0.000782	 0.042196
											CHANNELS 3 Zrotation Xrotation Yrotation
											End Site
											{
												OFFSET	 0.009002	-0.000782	 0.042196
											}
										}
									}
								}
							}
						}
					}
				}
			}
		}
	}
}
MOTION
Frames:    12
Frame Time: 0.03333334
 7.434399	 0.502633	-0.478187	 99.615950	-0.000014	-0.000013	 4.117246	-1.743471	 179.873500	 3.144691	-11.594560	 1.749916	 4.431090	 71.402270	 1.145380	-2.385832	 28.452790	-0.000001	-4.119452	-2.154259	-179.893100	-3.138409	-11.963990	-1.790670	-4.423576	 71.426400	-1.178366	 2.384659	 28.388700	-0.000001	-1.185617	 2.711293	 0.078684	-1.968314	-1.780912	-0.160598	-2.362809	-2.136374	-0.200078	-91.776180	 78.527400	-180.000000	 12.108180	-5.220949	-1.016094	-4.393907	-0.888970	-0.368816	-18.166240	-0.205546	-4.068510	-3.812334	 37.924440	-2.927599	-2.450526	 36.184240	 0.754587	-1.378229	 35.397820	-2.634230	-0.000002	-3.783157	-0.089647	-0.581329	 1.250165	 0.006368	 89.782090	 78.203830	-180.000000	-12.512950	-5.961371	 1.072636	 4.635273	-0.427241	 0.526691	 18.480990	-1.326633	 8.278508	 6.437017	 35.671460	-0.771858	 2.830251	 35.756010	-7.813440	-2.350882	 35.473990	 5.254307
 7.436630	 0.500367	-0.481368	-170.476500	 0.630742	 3.660515	 5.060874	-3.899478	 176.461700	-11.349840	-33.985930	-5.256484	 171.980000	 86.693990	 179.310900	-2.377633	 30.148830	-0.037099	 1.801361	-12.620570	 178.861600	 3.721512	-48.105660	 5.837172	-175.120200	 82.225140	-178.925200	 2.403634	 22.160500	-0.129866	-1.992645	 0.609595	-1.822505	-2.300174	-2.197425	-0.325070	-2.319121	-4.293587	-0.239724	-91.809390	 77.641430	 179.112500	 38.569840	 70.778270	-41.609190	-8.363476	-4.020745	-19.924780	 5.940278	-2.221483	-5.333354	-3.812334	 37.924440	-2.927599	-2.450526	 36.184240	 0.754587	-1.378229	 35.397820	-2.634230	 0.581316	 6.221872	-3.244943	-0.239682	-13.658650	-1.716702	 89.766420	 79.233830	-179.658400	-38.108960	 71.180920	 40.617770	 4.261919	-8.183479	 31.357570	-11.727230	-3.194929	 9.597119	 6.437017	 35.671460	-0.771858	 2.830251	 35.756010	-7.813440	-2.350882	 35.473990	 5.254307
 7.435898	 0.509910	-0.481867	-171.451200	 0.670502	 3.695066	 5.048315	-4.016826	 176.485000	-11.217890	-33.788480	-5.150692	 171.956900	 86.536260	 179.409900	-2.377266	 30.219260	-0.038654	 1.758022	-12.681070	 178.978900	 3.663895	-47.661380	 5.726613	-175.455300	 82.057970	-178.604200	 2.403692	 22.132230	-0.130439	-2.003236	 0.654122	-1.900930	-2.321897	-2.168655	-0.333985	-2.375413	-4.237066	-0.244382	-91.809830	 77.610210	 179.131100	 36.727710	 69.872890	-39.738290	-7.989717	-4.008404	-19.957780	 5.891217	-2.215622	-5.335247	-3.812334	 37.924440	-2.927599	-2.450526	 36.184240	 0.754587	-1.378229	 35.397820	-2.634230	 0.510457	 6.056020	-3.199725	-0.310697	-13.376390	-1.758398	 89.765330	 79.264810	-179.645700	-36.388440	 70.355520	 39.101110	 4.240920	-7.811103	 30.633430	-11.323970	-3.196210	 9.596532	 6.437017	 35.671460	-0.771858	 2.830251	 35.756010	-7.813440	-2.350882	 35.473990	 5.254307
 7.435398	 0.507185	-0.482205	-171.300600	 0.716722	 3.706578	 5.033401	-4.130685	 176.503300	-11.135210	-33.936300	-5.132904	 171.978900	 86.390880	 179.453100	-2.376689	 30.327100	-0.041054	 1.775773	-12.737170	 178.979100	 3.707601	-47.790040	 5.786397	-175.670800	 81.870470	-178.363200	 2.403629	 22.166690	-0.129744	-2.010103	 0.668168	-1.940697	-2.340142	-2.157284	-0.345629	-2.417018	-4.225031	-0.248411	-91.809720	 77.594360	 179.146900	 36.628490	 69.847050	-39.606470	-8.036510	-4.027035	-20.211580	 5.839387	-2.211867	-5.336643	-3.812334	 37.924440	-2.927599	-2.450526	 36.184240	 0.754587	-1.378229	 35.397820	-2.634230	 0.471198	 5.966656	-3.250074	-0.348764	-13.264400	-1.712334	 89.764690	 79.279720	-179.636700	-36.304710	 70.417440	 39.049310	 4.265809	-7.773489	 30.387970	-11.350850	-3.197091	 9.596057	 6.437017	 35.671460	-0.771858	 2.830251	 35.756010	-7.813440	-2.350882	 35.473990	 5.254307
 7.435336	 0.500359	-0.482562	-171.186500	 0.765465	 3.734248	 5.015897	-4.255540	 176.524200	-11.043920	-34.107270	-5.114634	 171.969100	 86.237140	 179.534200	-2.376038	 30.449580	-0.043770	 1.843116	-12.828950	 178.972700	 3.795545	-48.009590	 5.924074	-175.993800	 81.661890	-177.972300	 2.403589	 22.187840	-0.129314	-2.009723	 0.672130	-1.970126	-2.342792	-2.158472	-0.371996	-2.433767	-4.228621	-0.250209	-91.809120	 77.601290	 179.157000	 36.590640	 69.799110	-39.591650	-8.081667	-4.038733	-20.438910	 5.780374	-2.207325	-5.338062	-3.812334	 37.924440	-2.927599	-2.450526	 36.184240	 0.754587	-1.378229	 35.397820	-2.634230	 0.467933	 5.826040	-3.418334	-0.342992	-13.131570	-1.527552	 89.764200	 79.272220	-179.625200	-36.259510	 70.462810	 39.032970	 4.263534	-7.741833	 30.152860	-11.385480	-3.198537	 9.595243	 6.437017	 35.671460	-0.771858	 2.830251	 35.756010	-7.813440	-2.350882	 35.473990	 5.254307
 7.434721	 0.496182	-0.482911	-171.122600	 0.805939	 3.736296	 5.000330	-4.378066	 176.550600	-10.946200	-34.283010	-5.091168	 171.951100	 86.087530	 179.631200	-2.375420	 30.564910	-0.046337	 1.868192	-12.981670	 178.969000	 3.983850	-48.350200	 6.122703	-176.120500	 81.466500	-177.744300	 2.403399	 22.297460	-0.127103	-2.002618	 0.706595	-1.968263	-2.346697	-2.183076	-0.400341	-2.450463	-4.260788	-0.252609	-91.807720	 77.628150	 179.169200	 36.590810	 69.734560	-39.656670	-8.121460	-4.044005	-20.625800	 5.720781	-2.202766	-5.339513	-3.812334	 37.924440	-2.927599	-2.450526	 36.184240	 0.754587	-1.378229	 35.397820	-2.634230	 0.460692	 5.633430	-3.520587	-0.350646	-13.004810	-1.440123	 89.764630	 79.243260	-179.622900	-36.286030	 70.495740	 39.134110	 4.237669	-7.726911	 29.936930	-11.444980	-3.200354	 9.594223	 6.437017	 35.671460	-0.771858	 2.830251	 35.756010	-7.813440	-2.350882	 35.473990	 5.254307
 7.433201	 0.496085	-0.483289	-171.119900	 0.823930	 3.719673	 5.019186	-4.500455	 176.595900	-10.863800	-34.464810	-5.054971	 172.067200	 85.936730	 179.615900	-2.374840	 30.667430	-0.048629	 1.942399	-13.239940	 178.995300	 4.159084	-48.879910	 6.373930	-176.199600	 81.294010	-177.561700	 2.402857	 22.587720	-0.121229	-2.006700	 0.790392	-1.928575	-2.388788	-2.204179	-0.422510	-2.523566	-4.289535	-0.260775	-91.805470	 77.673740	 179.189100	 36.602140	 69.652320	-39.765480	-8.156986	-4.044307	-20.782140	 5.660421	-2.198225	-5.340848	-3.812334	 37.924440	-2.927599	-2.450526	 36.184240	 0.754587	-1.378229	 35.397820	-2.634230	 0.379627	 5.533102	-3.474450	-0.431091	-12.967980	-1.554961	 89.765140	 79.195400	-179.616600	-36.349250	 70.529950	 39.327350	 4.213122	-7.722462	 29.726050	-11.523410	-3.202256	 9.593225	 6.437017	 35.671460	-0.771858	 2.830251	 35.756010	-7.813440	-2.350882	 35.473990	 5.254307
 7.431405	 0.496039	-0.483694	-171.169100	 0.832291	 3.669836	 5.086083	-4.612604	 176.693900	-10.808810	-34.641080	-4.998735	 172.261000	 85.790860	 179.550000	-2.374437	 30.741990	-0.050286	 2.089701	-13.647470	 179.067900	 4.313902	-49.656860	 6.699393	-176.254200	 81.171880	-177.403600	 2.401831	 23.095450	-0.110909	-2.023056	 0.935979	-1.839025	-2.470388	-2.220067	-0.436779	-2.645617	-4.313638	-0.273944	-91.802310	 77.736640	 179.220900	 36.626130	 69.551570	-39.927730	-8.186250	-4.040505	-20.902250	 5.603577	-2.194202	-5.342118	-3.812334	 37.924440	-2.927599	-2.450526	 36.184240	 0.754587	-1.378229	 35.397820	-2.634230	 0.236367	 5.575437	-3.310557	-0.569780	-13.067450	-1.818463	 89.766520	 79.129850	-179.620700	-36.411470	 70.564960	 39.534080	 4.207074	-7.713061	 29.524150	-11.589500	-3.203839	 9.592443	 6.437017	 35.671460	-0.771858	 2.830251	 35.756010	-7.813440	-2.350882	 35.473990	 5.254307
 7.429569	 0.495966	-0.484084	-171.250000	 0.841708	 3.574608	 5.203120	-4.697677	 176.826500	-10.794400	-34.784700	-4.927265	 172.446200	 85.668850	 179.503600	-2.374162	 30.791160	-0.051386	 2.193533	-14.185120	 179.193800	 4.509256	-50.626790	 7.057604	-176.264500	 81.132110	-177.317400	 2.400319	 23.762250	-0.097293	-2.026378	 1.125017	-1.703523	-2.536899	-2.247697	-0.437666	-2.743046	-4.353261	-0.284978	-91.798980	 77.807520	 179.255200	 36.675160	 69.442250	-40.155020	-8.206884	-4.033999	-20.975640	 5.557893	-2.191305	-5.343067	-3.812334	 37.924440	-2.927599	-2.450526	 36.184240	 0.754587	-1.378229	 35.397820	-2.634230	 0.119247	 5.587690	-3.162205	-0.681787	-13.165420	-2.051492	 89.768450	 79.054530	-179.635700	-36.487780	 70.593320	 39.756650	 4.211702	-7.700208	 29.348660	-11.638780	-3.205304	 9.591565	 6.437017	 35.671460	-0.771858	 2.830251	 35.756010	-7.813440	-2.350882	 35.473990	 5.254307
 7.426908	 0.495836	-0.484652	-171.389000	 0.851924	 3.366354	 5.458344	-4.773391	 177.054200	-10.858120	-34.929730	-4.809160	 173.584000	 85.529900	 178.592300	-2.373502	 30.909500	-0.054032	 2.265634	-15.188650	 179.458600	 4.889355	-52.356040	 7.649694	-176.165900	 81.222640	-177.347200	 2.396585	 25.154870	-0.068549	-2.007279	 1.421518	-1.439672	-2.600267	-2.304212	-0.406481	-2.821271	-4.449246	-0.295452	-91.794560	 77.917440	 179.293100	 36.759200	 69.275140	-40.545030	-8.235475	-4.018125	-21.016520	 5.499188	-2.189333	-5.343973	-3.812334	 37.924440	-2.927599	-2.450526	 36.184240	 0.754587	-1.378229	 35.397820	-2.634230	 0.036256	 5.485010	-3.164912	-0.748775	-13.265750	-2.142377	 89.771530	 78.937440	-179.673500	-36.638570	 70.622780	 40.126730	 4.227620	-7.677627	 29.128640	-11.688840	-3.207117	 9.590487	 6.437017	 35.671460	-0.771858	 2.830251	 35.756010	-7.813440	-2.350882	 35.473990	 5.254307
 7.425200	 0.495792	-0.485025	-171.496700	 0.868257	 3.204408	 5.651604	-4.791149	 177.227500	-10.943250	-34.981490	-4.732249	 174.230300	 85.464990	 178.080000	-2.372933	 31.010240	-0.056295	 2.285342	-15.934530	 179.698300	 5.209454	-53.607360	 8.099545	-176.075000	 81.362100	-177.398000	 2.392719	 26.349580	-0.043534	-1.984536	 1.584229	-1.244155	-2.625916	-2.322364	-0.369894	-2.850454	-4.509023	-0.299985	-91.792160	 77.989170	 179.306700	 36.807500	 69.168840	-40.802360	-8.251763	-4.006144	-21.009940	 5.469062	-2.189200	-5.344203	-3.812334	 37.924440	-2.927599	-2.450526	 36.184240	 0.754587	-1.378229	 35.397820	-2.634230	 0.008402	 5.428882	-3.182643	-0.770756	-13.338450	-2.186692	 89.773060	 78.863060	-179.686900	-36.755470	 70.634740	 40.382260	 4.240520	-7.664537	 29.018470	-11.710720	-3.207736	 9.590081	 6.437017	 35.671460	-0.771858	 2.830251	 35.756010	-7.813440	-2.350882	 35.473990	 5.254307
 7.422822	 0.495725	-0.485597	-171.684100	 0.886924	 2.939229	 5.928463	-4.774286	 177.514600	-11.088370	-35.005240	-4.622602	 174.951800	 85.400740	 177.531300	-2.372102	 31.154250	-0.059530	 2.348955	-17.175240	-179.949300	 5.796952	-55.611200	 8.908255	-175.808500	 81.754680	-177.585700	 2.384329	 28.464570	 0.001640	-1.936051	 1.811416	-0.927549	-2.648954	-2.334863	-0.302717	-2.881173	-4.592697	-0.305307	-91.788650	 78.099310	 179.323700	 36.861990	 69.015790	-41.171840	-8.269669	-3.988729	-20.965440	 5.438280	-2.190050	-5.344099	-3.812334	 37.924440	-2.927599	-2.450526	 36.184240	 0.754587	-1.378229	 35.397820	-2.634230	-0.016586	 5.373108	-3.218178	-0.791951	-13.465550	-2.244549	 89.774910	 78.750060	-179.698700	-36.918700	 70.647320	 40.724240	 4.260150	-7.649227	 28.897010	-11.733330	-3.208175	 9.589882	 6.437017	 35.671460	-0.771858	 2.830251	 35.756010	-7.813440	-2.350882	 35.473990	 5.254307
